<svg xmlns="http://www.w3.org/2000/svg" viewBox="0 0 121.26 121.26"><defs><style>.cls-1{fill:#f5f5f5;}.cls-2{fill:#2ecc71;}</style></defs><title>1</title><g id="Layer_2" data-name="Layer 2"><g id="_1170px_grid" data-name="1170px grid"><circle class="cls-1" cx="60.63" cy="60.63" r="60.63"/><path class="cls-2" d="M94.82,75.06H88.39c-.85-5.93,1.06-12-1.55-17.68,2.25-1.18,5.68.15,7.15,2.81.32.57.56,1.19.83,1.78Z"/><path class="cls-2" d="M26.44,62c.92-2.46,2.39-4.38,5.12-4.88a18.64,18.64,0,0,1,3.11,0C32.21,61.45,33.3,66,33.08,70.36c-.08,1.5,0,3,0,4.7H26.44Z"/><path class="cls-2" d="M47.27,84.79c0-.51,0-.94,0-1.38,0-7.29,0-14.59,0-21.88a13.38,13.38,0,0,1,15-13.69c5.92.53,11.52,6.21,11.64,12.21.16,8.09,0,16.19,0,24.28a2.41,2.41,0,0,1-.11.46Z"/><path class="cls-2" d="M74.33,54.18c5.6-1.64,11.32,2,11.63,7.61.32,5.84.07,11.71.07,17.66H76.1V78c0-4.45,0-8.9,0-13.35C76.14,61.08,76.11,57.54,74.33,54.18Z"/><path class="cls-2" d="M45,79.48H35.16c0-.4-.1-.78-.1-1.16,0-4.94,0-9.88,0-14.81.05-5.78,4.12-9.93,9.53-9.79a18.11,18.11,0,0,1,2.09.29c0,.22.09.37,0,.47-1.43,3-1.63,6.23-1.6,9.5.05,5,0,10.05,0,15.08A2.89,2.89,0,0,1,45,79.48Z"/><path class="cls-2" d="M60.59,45.47a8.52,8.52,0,0,1-8.49-8.6,8.53,8.53,0,0,1,17.06.06A8.53,8.53,0,0,1,60.59,45.47Z"/><path class="cls-2" d="M38.52,45.57a5.78,5.78,0,1,1,5.65,5.94A5.91,5.91,0,0,1,38.52,45.57Z"/><path class="cls-2" d="M36.67,50.9a3.87,3.87,0,0,1-3.93,3.85,4,4,0,0,1-3.85-3.83,3.89,3.89,0,0,1,3.9-3.9A3.83,3.83,0,0,1,36.67,50.9Z"/><path class="cls-2" d="M88.49,47a3.89,3.89,0,0,1,3.88,3.91,4,4,0,0,1-3.86,3.81,3.86,3.86,0,1,1,0-7.73Z"/><path class="cls-2" d="M82.74,45.77a5.79,5.79,0,0,1-11.59-.09,5.79,5.79,0,0,1,11.59.09Z"/></g></g></svg>