<svg xmlns="http://www.w3.org/2000/svg" viewBox="0 0 121.26 121.26"><defs><style>.cls-1{fill:#f5f5f5;}.cls-2,.cls-3{fill:#2ecc71;}.cls-2{opacity:0.2;}.cls-3{font-size:31.01px;font-family:DiLo-65Bold, DiLo;font-weight:700;}</style></defs><title>2</title><g id="Layer_2" data-name="Layer 2"><g id="_1170px_grid" data-name="1170px grid"><path class="cls-1" d="M121.26,60.63a60.31,60.31,0,0,1-13.57,38.21c-.89,1.11-1.83,2.18-2.8,3.22s-1.85,1.92-2.83,2.83A60.62,60.62,0,0,1,14.12,21.75a60,60,0,0,1,7.64-7.64l.66-.54a60.62,60.62,0,0,1,98.84,47.06Z"/><path class="cls-2" d="M107.9,99l-3,3-2.83,2.83A60.62,60.62,0,0,1,14.12,21.75l7.64-7.64.6-.6.06.06,85.27,85.27Z"/><text class="cls-3" transform="translate(30.26 69.13)">MIN</text></g></g></svg>