<svg xmlns="http://www.w3.org/2000/svg" viewBox="0 0 121.26 121.26"><defs><style>.cls-1{fill:#f5f5f5;}.cls-2{fill:#2ecc71;}</style></defs><title>3</title><g id="Layer_2" data-name="Layer 2"><g id="_1170px_grid" data-name="1170px grid"><circle class="cls-1" cx="60.63" cy="60.63" r="60.63"/><path class="cls-2" d="M34.86,54.25H40a22.32,22.32,0,0,1,8.46-12.79,24.76,24.76,0,0,1,15.26-4.83q12.75,0,18.93,9.5l-5.56,3q-4.56-6.8-13.45-6.8a16.63,16.63,0,0,0-16.38,11.9H69.17v4H46.38q-.08.77-.08,2.4T46.38,63h22.8v4H47.23A16.63,16.63,0,0,0,63.61,78.9a15.51,15.51,0,0,0,13.45-6.8L82.62,75q-6.1,9.58-19,9.58a25,25,0,0,1-15.38-4.91A22.13,22.13,0,0,1,40,67h-5.1V63h4.4q-.08-.77-.08-2.4t.08-2.32h-4.4Z"/></g></g></svg>