<svg xmlns="http://www.w3.org/2000/svg" viewBox="0 0 178.38 51.19"><defs><style>.cls-1{fill:#fff;}</style></defs><title>apple-store</title><g id="Layer_2" data-name="Layer 2"><g id="_1170px_grid" data-name="1170px grid"><path d="M178.38,46.06a5.13,5.13,0,0,1-5.14,5.13H5.14A5.14,5.14,0,0,1,0,46.06V5.14A5.14,5.14,0,0,1,5.14,0h168.1a5.14,5.14,0,0,1,5.14,5.14V46.06Z"/><path class="cls-1" d="M39.13,24.45a7.77,7.77,0,0,1,3.7-6.52,8,8,0,0,0-6.26-3.39c-2.64-.28-5.19,1.58-6.53,1.58s-3.44-1.55-5.66-1.5a8.34,8.34,0,0,0-7,4.28c-3,5.26-.77,13,2.14,17.23,1.45,2.08,3.16,4.4,5.38,4.32s3-1.39,5.62-1.39,3.37,1.39,5.64,1.34,3.81-2.09,5.21-4.19a17.19,17.19,0,0,0,2.38-4.85A7.51,7.51,0,0,1,39.13,24.45Z"/><path class="cls-1" d="M34.84,11.75a7.64,7.64,0,0,0,1.75-5.48,7.78,7.78,0,0,0-5,2.6,7.27,7.27,0,0,0-1.8,5.28A6.43,6.43,0,0,0,34.84,11.75Z"/><path class="cls-1" d="M59.24,40.15h-2.6V23h2.6Z"/><path class="cls-1" d="M66,23.46a24.48,24.48,0,0,1-2.46,6L62,29.61a30.39,30.39,0,0,0,1.52-5.91Z"/><path class="cls-1" d="M78.8,40.15H76l-1.52-4.77H69.23l-1.45,4.77h-2.7l5.23-16.25h3.23Zm-4.75-6.78-1.37-4.24q-.22-.65-.82-3.06h0q-.24,1-.77,3.06l-1.35,4.24Z"/><path class="cls-1" d="M92.26,34.14a6.66,6.66,0,0,1-1.62,4.73A4.72,4.72,0,0,1,87,40.41a3.59,3.59,0,0,1-3.33-1.66h0v6.17h-2.6V32.28q0-1.88-.1-3.86h2.29l.14,1.86h0a4.63,4.63,0,0,1,7.42-.46A6.46,6.46,0,0,1,92.26,34.14Zm-2.65.1a4.82,4.82,0,0,0-.77-2.82,2.76,2.76,0,0,0-4-.52,3,3,0,0,0-1,1.67,3.42,3.42,0,0,0-.12.8v2a3.12,3.12,0,0,0,.78,2.16,2.6,2.6,0,0,0,2,.88,2.67,2.67,0,0,0,2.29-1.13A5,5,0,0,0,89.6,34.24Z"/><path class="cls-1" d="M105.74,34.14a6.66,6.66,0,0,1-1.62,4.73,4.72,4.72,0,0,1-3.59,1.54,3.59,3.59,0,0,1-3.33-1.66h0v6.17H94.55V32.28q0-1.88-.09-3.86h2.29l.14,1.86h0a4.63,4.63,0,0,1,7.42-.46A6.47,6.47,0,0,1,105.74,34.14Zm-2.65.1a4.81,4.81,0,0,0-.77-2.82,2.76,2.76,0,0,0-4-.52,3,3,0,0,0-1,1.67,3.35,3.35,0,0,0-.12.8v2a3.13,3.13,0,0,0,.78,2.16,2.6,2.6,0,0,0,2,.88,2.67,2.67,0,0,0,2.29-1.13A5,5,0,0,0,103.09,34.24Z"/><path class="cls-1" d="M120.81,35.59A4.34,4.34,0,0,1,119.37,39a6.41,6.41,0,0,1-4.43,1.42,7.75,7.75,0,0,1-4.21-1l.6-2.17a7.12,7.12,0,0,0,3.76,1,3.55,3.55,0,0,0,2.29-.66,2.17,2.17,0,0,0,.82-1.78,2.27,2.27,0,0,0-.68-1.67,6.32,6.32,0,0,0-2.24-1.26Q111,31.29,111,28.22a4.13,4.13,0,0,1,1.5-3.29,5.91,5.91,0,0,1,4-1.28,7.89,7.89,0,0,1,3.69.77l-.65,2.12a6.41,6.41,0,0,0-3.11-.75,3.15,3.15,0,0,0-2.15.68,1.93,1.93,0,0,0-.65,1.47,2,2,0,0,0,.75,1.59,8.37,8.37,0,0,0,2.36,1.25,8,8,0,0,1,3.09,2A4.13,4.13,0,0,1,120.81,35.59Z"/><path class="cls-1" d="M129.42,30.38h-2.87v5.69q0,2.17,1.52,2.17a4.66,4.66,0,0,0,1.16-.12l.07,2a5.84,5.84,0,0,1-2,.29,3.11,3.11,0,0,1-2.41-.94,4.59,4.59,0,0,1-.87-3.16V30.38h-1.71v-2H124V26.28l2.56-.77v2.92h2.87Z"/><path class="cls-1" d="M142.37,34.19a6.44,6.44,0,0,1-1.54,4.44,5.51,5.51,0,0,1-4.29,1.78,5.24,5.24,0,0,1-4.11-1.71,6.23,6.23,0,0,1-1.53-4.32,6.37,6.37,0,0,1,1.58-4.46,5.47,5.47,0,0,1,4.26-1.74,5.36,5.36,0,0,1,4.15,1.71A6.19,6.19,0,0,1,142.37,34.19Zm-2.7.08a5.28,5.28,0,0,0-.7-2.78,2.57,2.57,0,0,0-2.34-1.4,2.61,2.61,0,0,0-2.39,1.4,5.39,5.39,0,0,0-.7,2.83,5.3,5.3,0,0,0,.7,2.78,2.66,2.66,0,0,0,4.7,0A5.31,5.31,0,0,0,139.67,34.28Z"/><path class="cls-1" d="M150.83,30.72a4.42,4.42,0,0,0-.82-.07,2.46,2.46,0,0,0-2.12,1,3.91,3.91,0,0,0-.65,2.32v6.15h-2.6l0-8q0-2-.1-3.69h2.27l.09,2.24H147a4,4,0,0,1,1.3-1.86,3.15,3.15,0,0,1,1.88-.63,4.09,4.09,0,0,1,.65,0v2.49Z"/><path class="cls-1" d="M162.48,33.73a6.24,6.24,0,0,1-.1,1.18h-7.81a3.41,3.41,0,0,0,1.13,2.65,3.87,3.87,0,0,0,2.56.82,8.65,8.65,0,0,0,3.16-.55l.41,1.81a9.81,9.81,0,0,1-3.93.72,5.68,5.68,0,0,1-4.28-1.6,5.92,5.92,0,0,1-1.55-4.3A6.73,6.73,0,0,1,153.51,30a5,5,0,0,1,4.1-1.88A4.37,4.37,0,0,1,161.44,30,6.32,6.32,0,0,1,162.48,33.73ZM160,33.06a3.54,3.54,0,0,0-.51-2A2.27,2.27,0,0,0,157.41,30,2.48,2.48,0,0,0,155.34,31a3.9,3.9,0,0,0-.77,2Z"/><path class="cls-1" d="M62.81,8.36H60.31v7.58H58.9V8.36H56.41V7.18h6.41Z"/><path class="cls-1" d="M69.7,12.48a3.39,3.39,0,0,1-.05.64H65.44A1.84,1.84,0,0,0,66,14.55a2.09,2.09,0,0,0,1.38.44,4.64,4.64,0,0,0,1.7-.3l.22,1a5.28,5.28,0,0,1-2.12.39,3.07,3.07,0,0,1-2.31-.86,3.19,3.19,0,0,1-.84-2.32,3.61,3.61,0,0,1,.78-2.38,2.69,2.69,0,0,1,2.21-1,2.35,2.35,0,0,1,2.07,1A3.38,3.38,0,0,1,69.7,12.48Zm-1.34-.36A1.91,1.91,0,0,0,68.09,11,1.23,1.23,0,0,0,67,10.45a1.34,1.34,0,0,0-1.12.57,2.11,2.11,0,0,0-.42,1.09ZM68.94,7,67.36,8.85h-1L67.52,7Z"/><path class="cls-1" d="M73.14,15.94h-1.4V6.72h1.4Z"/><path class="cls-1" d="M80.84,12.48a3.39,3.39,0,0,1-.05.64H76.58a1.84,1.84,0,0,0,.61,1.43,2.09,2.09,0,0,0,1.38.44,4.64,4.64,0,0,0,1.7-.3l.22,1a5.28,5.28,0,0,1-2.12.39,3.07,3.07,0,0,1-2.31-.86,3.19,3.19,0,0,1-.84-2.32A3.61,3.61,0,0,1,76,10.49a2.69,2.69,0,0,1,2.21-1,2.35,2.35,0,0,1,2.07,1A3.37,3.37,0,0,1,80.84,12.48Zm-1.34-.36A1.91,1.91,0,0,0,79.23,11a1.23,1.23,0,0,0-1.12-.59A1.34,1.34,0,0,0,77,11a2.11,2.11,0,0,0-.42,1.09ZM80.07,7,78.5,8.85h-1L78.66,7Z"/><path class="cls-1" d="M87.39,9.79l-.27,1.07a2.76,2.76,0,0,0-1.22-.26,1.85,1.85,0,0,0-1.46.62,2.3,2.3,0,0,0-.54,1.57,2.18,2.18,0,0,0,.57,1.58,1.91,1.91,0,0,0,1.44.59,3.26,3.26,0,0,0,1.27-.26l.2,1.05a4.07,4.07,0,0,1-1.74.33,3.07,3.07,0,0,1-2.3-.88,3.21,3.21,0,0,1-.86-2.35,3.2,3.2,0,0,1,3.4-3.35A3.52,3.52,0,0,1,87.39,9.79Z"/><path class="cls-1" d="M94.79,15.94h-1.4V12.35q0-1.7-1.27-1.7a1.34,1.34,0,0,0-1.34,1,1.72,1.72,0,0,0-.07.51v3.8h-1.4V6.72h1.4v3.81h0a2.12,2.12,0,0,1,1.9-1,2,2,0,0,1,1.44.57,2.88,2.88,0,0,1,.71,2.12Z"/><path class="cls-1" d="M102,15.94h-1.26l-.1-.73h0a2.16,2.16,0,0,1-1.84.87,1.9,1.9,0,0,1-1.44-.57,1.79,1.79,0,0,1-.49-1.29,2,2,0,0,1,1-1.77,5,5,0,0,1,2.72-.6v-.12q0-1.25-1.31-1.25a2.94,2.94,0,0,0-1.65.47L97.26,10a4.05,4.05,0,0,1,2.17-.55q2.48,0,2.48,2.61v2.33A9.86,9.86,0,0,0,102,15.94Zm-1.46-2.17v-1q-2.32,0-2.32,1.27a1,1,0,0,0,.27.74,1,1,0,0,0,.69.25,1.42,1.42,0,0,0,.86-.29,1.2,1.2,0,0,0,.51-1Z"/><path class="cls-1" d="M107.7,10.86a2.33,2.33,0,0,0-.44,0,1.33,1.33,0,0,0-1.14.56,2.11,2.11,0,0,0-.35,1.25v3.31h-1.4V11.61c0-.73,0-1.39-.05-2h1.22l.05,1.21h0a2.13,2.13,0,0,1,.7-1,1.69,1.69,0,0,1,1-.34,2.11,2.11,0,0,1,.35,0Z"/><path class="cls-1" d="M115,9.62c0,.51-.05,1.11-.05,1.79V15a3.73,3.73,0,0,1-.91,2.86,3.36,3.36,0,0,1-2.34.75,4,4,0,0,1-2.12-.49l.32-1.08a3.4,3.4,0,0,0,1.8.48q1.86,0,1.86-2v-.61h0a2,2,0,0,1-1.86,1,2.36,2.36,0,0,1-1.88-.87,3.29,3.29,0,0,1-.74-2.21,3.5,3.5,0,0,1,.86-2.46,2.52,2.52,0,0,1,1.94-.87,2,2,0,0,1,1.85,1h0l.05-.87H115Zm-1.45,3.61V12.12a1.61,1.61,0,0,0-.4-1.09,1.33,1.33,0,0,0-1.05-.45,1.43,1.43,0,0,0-1.18.6,2.55,2.55,0,0,0-.46,1.6,2.33,2.33,0,0,0,.43,1.47,1.41,1.41,0,0,0,1.21.61,1.37,1.37,0,0,0,.84-.28,1.51,1.51,0,0,0,.53-.76A1.84,1.84,0,0,0,113.57,13.23Z"/><path class="cls-1" d="M122.67,12.48a3.39,3.39,0,0,1-.05.64h-4.21a1.84,1.84,0,0,0,.61,1.43,2.09,2.09,0,0,0,1.38.44,4.65,4.65,0,0,0,1.7-.3l.22,1a5.29,5.29,0,0,1-2.12.39,3.06,3.06,0,0,1-2.31-.86,3.18,3.18,0,0,1-.84-2.32,3.61,3.61,0,0,1,.78-2.38,2.69,2.69,0,0,1,2.21-1,2.35,2.35,0,0,1,2.06,1A3.37,3.37,0,0,1,122.67,12.48Zm-1.34-.36a1.89,1.89,0,0,0-.27-1.08,1.23,1.23,0,0,0-1.12-.59,1.33,1.33,0,0,0-1.12.57,2.13,2.13,0,0,0-.42,1.09Z"/><path class="cls-1" d="M128,10.86a2.33,2.33,0,0,0-.44,0,1.33,1.33,0,0,0-1.14.56,2.11,2.11,0,0,0-.35,1.25v3.31h-1.41V11.61q0-1.09,0-2h1.22l.05,1.21h0a2.14,2.14,0,0,1,.7-1,1.71,1.71,0,0,1,1-.34l.35,0v1.34Z"/><path class="cls-1" d="M139.25,15.94H138l-.07-1h0a2.1,2.1,0,0,1-2,1.16,2.37,2.37,0,0,1-1.9-.9,3.49,3.49,0,0,1-.75-2.33,3.67,3.67,0,0,1,.82-2.48A2.52,2.52,0,0,1,136,9.49a1.89,1.89,0,0,1,1.78.86h0V6.72h1.4v7.51Q139.2,15.16,139.25,15.94Zm-1.45-2.66V12.22a2.07,2.07,0,0,0,0-.44,1.59,1.59,0,0,0-.51-.85,1.38,1.38,0,0,0-.94-.34,1.44,1.44,0,0,0-1.23.62,2.66,2.66,0,0,0-.45,1.6,2.49,2.49,0,0,0,.43,1.52,1.44,1.44,0,0,0,1.22.62,1.35,1.35,0,0,0,1.11-.52A1.74,1.74,0,0,0,137.8,13.27Z"/><path class="cls-1" d="M146.42,15.94h-1.26l-.1-.73h0a2.17,2.17,0,0,1-1.84.87,1.91,1.91,0,0,1-1.44-.57,1.79,1.79,0,0,1-.49-1.29,2,2,0,0,1,1-1.77,5,5,0,0,1,2.72-.6v-.12q0-1.25-1.31-1.25A3,3,0,0,0,142,11l-.29-.92a4.05,4.05,0,0,1,2.17-.55q2.48,0,2.48,2.61v2.33A9.72,9.72,0,0,0,146.42,15.94ZM145,13.77v-1q-2.33,0-2.33,1.27a1,1,0,0,0,.27.74,1,1,0,0,0,.68.25,1.43,1.43,0,0,0,.86-.29,1.2,1.2,0,0,0,.48-.75A1,1,0,0,0,145,13.77Z"/><path class="cls-1" d="M154.27,15.94h-1.41V12.32q0-1.67-1.27-1.67a1.27,1.27,0,0,0-1,.46,1.63,1.63,0,0,0-.39,1.08v3.75h-1.4V11.43c0-.55,0-1.16-.05-1.81H150l.07,1h0a2,2,0,0,1,.73-.76,2.37,2.37,0,0,1,1.27-.36,2,2,0,0,1,1.47.57,2.78,2.78,0,0,1,.73,2.09Z"/><path class="cls-1" d="M160.6,14.12a1.74,1.74,0,0,1-.65,1.41,2.76,2.76,0,0,1-1.8.53,3.65,3.65,0,0,1-1.83-.43l.3-1a2.94,2.94,0,0,0,1.55.44q1.08,0,1.08-.79a.77.77,0,0,0-.23-.58,2.45,2.45,0,0,0-.83-.45q-1.69-.63-1.69-1.82a1.74,1.74,0,0,1,.62-1.37,2.41,2.41,0,0,1,1.65-.55,3.15,3.15,0,0,1,1.6.38l-.3,1a2.47,2.47,0,0,0-1.28-.36,1,1,0,0,0-.69.21.67.67,0,0,0-.25.53.65.65,0,0,0,.26.53,3,3,0,0,0,.86.43Q160.6,12.84,160.6,14.12Z"/></g></g></svg>