<?xml version="1.0" encoding="utf-8"?>
<!-- Generator: Adobe Illustrator 20.1.0, SVG Export Plug-In . SVG Version: 6.00 Build 0)  -->
<svg version="1.1" id="Layer_1" xmlns="http://www.w3.org/2000/svg" xmlns:xlink="http://www.w3.org/1999/xlink" x="0px" y="0px"
	 viewBox="0 0 178.4 51.2" style="enable-background:new 0 0 178.4 51.2;" xml:space="preserve">
<style type="text/css">
	.st0{clip-path:url(#SVGID_2_);}
	.st1{fill:url(#SVGID_3_);}
	.st2{clip-path:url(#SVGID_5_);}
	.st3{fill:url(#SVGID_6_);}
	.st4{clip-path:url(#SVGID_8_);}
	.st5{fill:url(#SVGID_9_);}
	.st6{clip-path:url(#SVGID_11_);}
	.st7{fill:url(#SVGID_12_);}
	.st8{fill:#F9F9F9;}
	.st9{fill:#F9F9FA;}
</style>
<title>google-play</title>
<g id="Layer_2">
	<g id="_1170px_grid">
		<path d="M178.4,46.1c0,2.8-2.3,5.1-5.1,5.1c0,0,0,0,0,0H5.1c-2.8,0-5.1-2.3-5.1-5.1V5.1C0,2.3,2.3,0,5.1,0h168.1
			c2.8,0,5.1,2.3,5.1,5.1V46.1z"/>
		<g id="PLAY">
			<g>
				<defs>
					<path id="SVGID_1_" d="M39.6,20.6l-7.5-4.3L17.8,8c-0.8-0.5-1.6-0.2-1.6,0.8v33.9c0,0.7,0.6,1,1.3,0.6l14.7-8.5l7.5-4.3
						l7.2-4.1c0.8-0.5,0.8-1.1,0-1.5S39.6,20.6,39.6,20.6z"/>
				</defs>
				<clipPath id="SVGID_2_">
					<use xlink:href="#SVGID_1_"  style="overflow:visible;"/>
				</clipPath>
				<g class="st0">
					
						<linearGradient id="SVGID_3_" gradientUnits="userSpaceOnUse" x1="-1478.6029" y1="-430.6517" x2="-1478.6029" y2="-427.5917" gradientTransform="matrix(12 0 0 12 17768.6602 5175.04)">
						<stop  offset="0" style="stop-color:#257CB0"/>
						<stop  offset="0.29" style="stop-color:#4A93B5"/>
						<stop  offset="0.77" style="stop-color:#78BCBB"/>
						<stop  offset="1" style="stop-color:#89CFBD"/>
					</linearGradient>
					<polygon class="st1" points="16.2,7.2 16.2,25.6 16.2,43.9 34.7,25.6 					"/>
				</g>
			</g>
			<g>
				<defs>
					<path id="SVGID_4_" d="M39.6,20.6l-7.5-4.3L17.8,8c-0.8-0.5-1.6-0.2-1.6,0.8v33.9c0,0.7,0.6,1,1.3,0.6l14.7-8.5l7.5-4.3
						l7.2-4.1c0.8-0.5,0.8-1.1,0-1.5S39.6,20.6,39.6,20.6z"/>
				</defs>
				<clipPath id="SVGID_5_">
					<use xlink:href="#SVGID_4_"  style="overflow:visible;"/>
				</clipPath>
				<g class="st2">
					
						<linearGradient id="SVGID_6_" gradientUnits="userSpaceOnUse" x1="-1479.3766" y1="-429.8929" x2="-1477.4166" y2="-429.8929" gradientTransform="matrix(12 0 0 12 17768.6602 5175.04)">
						<stop  offset="0" style="stop-color:#52C1AD"/>
						<stop  offset="1" style="stop-color:#DEE89A"/>
					</linearGradient>
					<polygon class="st3" points="39.6,20.6 32.2,16.3 16.2,7.1 16.2,7.2 34.7,25.6 					"/>
				</g>
			</g>
			<g>
				<defs>
					<path id="SVGID_7_" d="M39.6,20.6l-7.5-4.3L17.8,8c-0.8-0.5-1.6-0.2-1.6,0.8v33.9c0,0.7,0.6,1,1.3,0.6l14.7-8.5l7.5-4.3
						l7.2-4.1c0.8-0.5,0.8-1.1,0-1.5S39.6,20.6,39.6,20.6z"/>
				</defs>
				<clipPath id="SVGID_8_">
					<use xlink:href="#SVGID_7_"  style="overflow:visible;"/>
				</clipPath>
				<g class="st4">
					
						<linearGradient id="SVGID_9_" gradientUnits="userSpaceOnUse" x1="-1478.3959" y1="-429.1233" x2="-1478.3959" y2="-427.5842" gradientTransform="matrix(12 0 0 12 17768.6602 5175.04)">
						<stop  offset="0" style="stop-color:#EC413D"/>
						<stop  offset="0.17" style="stop-color:#DA4452"/>
						<stop  offset="0.57" style="stop-color:#B0487A"/>
						<stop  offset="0.86" style="stop-color:#954A92"/>
						<stop  offset="1" style="stop-color:#8A4A9D"/>
					</linearGradient>
					<polygon class="st5" points="16.2,43.9 16.2,44 32.2,34.8 39.6,30.5 34.7,25.6 					"/>
				</g>
			</g>
			<g>
				<defs>
					<path id="SVGID_10_" d="M39.6,20.6l-7.5-4.3L17.8,8c-0.8-0.5-1.6-0.2-1.6,0.8v33.9c0,0.7,0.6,1,1.3,0.6l14.7-8.5l7.5-4.3
						l7.2-4.1c0.8-0.5,0.8-1.1,0-1.5S39.6,20.6,39.6,20.6z"/>
				</defs>
				<clipPath id="SVGID_11_">
					<use xlink:href="#SVGID_10_"  style="overflow:visible;"/>
				</clipPath>
				<g class="st6">
					
						<linearGradient id="SVGID_12_" gradientUnits="userSpaceOnUse" x1="-1477.27" y1="-429.5333" x2="-1477.27" y2="-428.7133" gradientTransform="matrix(12 0 0 12 17768.6602 5175.04)">
						<stop  offset="0" style="stop-color:#F58879"/>
						<stop  offset="0.12" style="stop-color:#F69079"/>
						<stop  offset="0.71" style="stop-color:#FCB877"/>
						<stop  offset="1" style="stop-color:#FEC874"/>
					</linearGradient>
					<polygon class="st7" points="39.6,20.6 34.7,25.6 39.6,30.5 48.2,25.6 					"/>
				</g>
			</g>
		</g>
		<path class="st8" d="M132.6,34.7c-0.7,0-1.3-0.1-1.9-0.4c-0.6-0.3-1.1-0.7-1.4-1.2h-0.1c0.1,0.6,0.1,1.2,0.1,1.8v4.4h-1.6V23.9
			h1.3l0.2,1.5h0.1c0.4-0.5,0.9-1,1.4-1.3c0.6-0.3,1.2-0.4,1.9-0.4c1.3-0.1,2.5,0.5,3.3,1.5c0.8,1.2,1.2,2.6,1.1,4.1
			c0.1,1.5-0.3,2.9-1.2,4.1C135,34.2,133.9,34.8,132.6,34.7z M132.4,25c-0.9-0.1-1.8,0.3-2.4,1c-0.6,0.9-0.8,1.9-0.8,2.9v0.4
			c-0.1,1.1,0.2,2.3,0.8,3.2c0.6,0.7,1.5,1.1,2.4,1c0.9,0,1.7-0.4,2.2-1.1c0.6-0.9,0.8-2,0.8-3.1c0.1-1.1-0.2-2.1-0.8-3.1
			C134.1,25.4,133.3,25,132.4,25z"/>
		<path class="st8" d="M140.8,34.5h-1.6V19.4h1.6V34.5z"/>
		<path class="st8" d="M150.1,34.5l-0.3-1.5h-0.1c-0.4,0.6-1,1-1.6,1.4c-0.6,0.3-1.3,0.4-2,0.4c-0.9,0.1-1.8-0.2-2.5-0.8
			c-0.6-0.6-1-1.5-0.9-2.3c0-2.2,1.7-3.3,5.2-3.4l1.8-0.1v-0.7c0.1-0.7-0.1-1.3-0.5-1.9c-0.5-0.4-1.1-0.7-1.7-0.6
			c-1,0-2.1,0.3-3,0.8l-0.5-1.2c0.5-0.3,1.1-0.5,1.7-0.7c0.6-0.2,1.2-0.2,1.9-0.2c1-0.1,2,0.2,2.8,0.9c0.7,0.7,1,1.7,0.9,2.7v7.3
			L150.1,34.5L150.1,34.5z M146.4,33.4c0.9,0,1.7-0.2,2.4-0.8c0.6-0.6,0.9-1.5,0.9-2.3v-1l-1.6,0.1c-1,0-1.9,0.2-2.8,0.6
			c-0.6,0.4-0.9,1-0.9,1.6c0,0.5,0.2,1,0.5,1.3C145.3,33.2,145.9,33.4,146.4,33.4z"/>
		<path class="st8" d="M152.2,23.9h1.7l2.3,6.1c0.4,1,0.7,2,1,3h0.1c0.1-0.3,0.3-0.9,0.5-1.7s1.1-3.3,2.6-7.4h1.7L157.6,36
			c-0.3,1-0.9,1.9-1.6,2.6c-0.6,0.5-1.4,0.8-2.2,0.8c-0.5,0-1-0.1-1.5-0.2v-1.3c0.4,0.1,0.8,0.1,1.2,0.1c1.1,0,2.1-0.8,2.4-1.9
			l0.6-1.5L152.2,23.9z"/>
		<path class="st8" d="M102.7,24.9c1.7,1.1,2.1,3.4,1,5c-0.3,0.5-0.7,0.9-1.2,1.1c-0.3,0.3-0.6,0.7-0.6,1.1c0,0.4,0.2,0.8,0.6,1
			l0.8,0.6c1,0.8,1.9,1.6,1.9,3.1c0,2.1-2,4.2-5.9,4.2c-3.2,0-4.8-1.5-4.8-3.2c0-1.1,0.7-2.2,1.7-2.7c1.3-0.7,2.8-1,4.3-1
			c-0.4-0.4-0.6-0.9-0.7-1.5c0-0.3,0.1-0.6,0.2-0.9c-0.3,0-0.5,0-0.7,0c-1.9,0.1-3.6-1.4-3.7-3.4c0,0,0-0.1,0-0.1
			c0-1.2,0.5-2.3,1.4-3c1.1-0.9,2.6-1.3,4-1.2h4.6l-1.4,0.8C104.1,24.9,102.7,24.9,102.7,24.9z M101.1,34.8c-0.2,0-0.3,0-0.5,0
			c-0.8,0-1.6,0.1-2.3,0.4c-1.1,0.3-1.9,1.2-1.9,2.3c0,1.6,1.5,2.7,3.9,2.7c2.1,0,3.3-1,3.3-2.4C103.5,36.6,102.8,36,101.1,34.8z
			 M101.8,30.5c0.4-0.4,0.6-1,0.6-1.6c0-1.6-1-4.1-2.8-4.1c-0.6,0-1.2,0.3-1.6,0.7c-0.3,0.5-0.5,1.1-0.5,1.6c0,1.5,0.9,4,2.8,4
			C100.8,31.2,101.3,30.9,101.8,30.5z"/>
		<path class="st8" d="M88.6,34.4c-2.9,0.1-5.3-2.2-5.4-5.1c0-0.1,0-0.1,0-0.2c0.1-3,2.6-5.5,5.6-5.4c0.1,0,0.1,0,0.2,0
			c2.9,0,5.2,2.3,5.3,5.1c0,0,0,0.1,0,0.1c0,3-2.5,5.4-5.5,5.4C88.8,34.4,88.7,34.4,88.6,34.4z M91.4,32.6c0.5-0.7,0.7-1.6,0.7-2.5
			c0-2-0.9-5.7-3.7-5.7c-0.7,0-1.4,0.3-2,0.8c-0.7,0.7-1.1,1.7-1,2.7c0,2.2,1.1,5.8,3.8,5.8C90.1,33.7,90.9,33.3,91.4,32.6z"/>
		<path class="st8" d="M76.6,34.4c-2.9,0.1-5.3-2.2-5.4-5.1c0-0.1,0-0.1,0-0.2c0.1-3,2.6-5.5,5.6-5.4c0,0,0.1,0,0.1,0
			c2.9-0.1,5.3,2.2,5.3,5.1c0,0.1,0,0.1,0,0.2c0,3-2.5,5.4-5.5,5.4C76.7,34.4,76.6,34.4,76.6,34.4z M79.3,32.6
			c0.5-0.7,0.7-1.6,0.7-2.5c0-2-0.9-5.7-3.7-5.7c-0.7,0-1.4,0.3-2,0.8c-0.7,0.7-1.1,1.7-1,2.7c0,2.2,1.1,5.8,3.8,5.8
			C78,33.7,78.8,33.3,79.3,32.6z"/>
		<path class="st8" d="M69.4,34.1l-3.2,0.7c-1.2,0.2-2.5,0.3-3.7,0.4c-6.2,0-8.5-4.5-8.5-8.1c0-4.3,3.3-8.4,9-8.4
			c1.2,0,2.3,0.2,3.4,0.5c1.1,0.3,2.1,0.7,3,1.4l-1.9,1.8l-0.8,0.2l0.6-0.9c-1.2-1.4-3-2.1-4.8-2.1c-3.5,0-6.2,2.7-6.2,6.6
			c-0.1,4.4,3.3,8,7.7,8.2c0.1,0,0.2,0,0.3,0c1,0,1.9-0.2,2.8-0.6v-3.6l-3.4,0.2l1.8-1h4.8l-0.6,0.6c-0.1,0.1-0.2,0.2-0.2,0.4
			c0,0.2,0,0.9,0,1.1L69.4,34.1L69.4,34.1z"/>
		<path class="st8" d="M109.8,33.4c-0.7-0.1-0.9-0.2-0.9-1.1V19.5c0.1-0.8,0.3-0.9,1-1.3h-3.2L105,19h1.7v13.8
			c0,0.5-0.1,0.5-0.6,1.2h4l0.8-0.5L109.8,33.4z"/>
		<path class="st8" d="M118.9,33.6c-0.2,0.1-0.5,0.3-0.7,0.4c-0.7,0.3-1.4,0.4-2.2,0.4c-1.1,0.1-2.1-0.3-3-0.9
			c-1.5-1.1-2.3-2.9-2.3-4.7c-0.1-2.8,2.1-5.1,4.9-5.1c0.1,0,0.2,0,0.2,0c0.8,0,1.6,0.2,2.3,0.6c0.8,0.5,1.3,1.3,1.6,2.2l-5.2,2.1
			l-1.7,0.1c0.6,2.8,2.5,4.5,4.6,4.5c1,0,1.9-0.3,2.7-0.8L118.9,33.6z M116.8,27c0.4-0.2,0.6-0.3,0.6-0.6c-0.2-1.1-1.1-1.9-2.2-1.9
			c-0.9,0-2.6,0.7-2.6,3.1c0,0.4,0,0.8,0.1,1.2L116.8,27z"/>
		<path class="st8" d="M121,23.9v1.5h-0.2v-1.5h-0.5v-0.1h1.2v0.1H121z"/>
		<path class="st8" d="M123,25.4v-1.5l0,0l-0.4,1.5h-0.1l-0.4-1.5l0,0v1.5h-0.2v-1.6h0.3l0.4,1.3l0,0l0.4-1.3h0.3v1.6H123z"/>
		<path class="st9" d="M58.5,14.3h-1.1c-0.1-0.5-0.2-0.9-0.3-1.3h-1.6c-0.2,0.4-0.3,0.9-0.3,1.3H54c0-0.1,0.3-0.8,0.8-2.2
			c0.3-0.7,0.6-1.5,0.8-2.3H57c0.2,0.8,0.4,1.5,0.7,2.3C58,12.8,58.3,13.6,58.5,14.3z M56.8,12.3c-0.2-0.6-0.4-1.3-0.6-1.9h-0.1
			c0,0.1-0.2,0.7-0.6,1.9H56.8z"/>
		<path class="st9" d="M62.9,14.3h-0.9c-0.3-0.5-0.6-1-1-1.5c-0.5-0.6-0.9-1.3-1.1-2h-0.1c0.1,0.5,0.1,0.9,0.1,1.4
			c0,0.6,0,1.3,0,2.1h-0.8c0-0.7,0-1.5,0-2.4c0-0.9,0-1.6,0-2.2h1c0.2,0.5,0.5,1,0.9,1.5c0.4,0.6,0.8,1.2,1,1.9h0
			c-0.1-0.5-0.1-0.9-0.1-1.4c0-0.6,0-1.3,0-1.9h0.9c0,0.6,0,1.3,0,2.2S62.9,13.6,62.9,14.3z"/>
		<path class="st9" d="M68,11.9c0,0.6-0.2,1.2-0.6,1.7c-0.4,0.5-1.1,0.8-1.8,0.7c-0.3,0-0.8,0-1.4,0c0-0.7,0-1.5,0-2.4
			c0-0.9,0-1.6,0-2.2h1.4c0.7-0.1,1.3,0.2,1.8,0.6C67.8,10.9,68,11.4,68,11.9z M67.1,12.1c0-0.4-0.1-0.8-0.4-1.1
			c-0.3-0.3-0.7-0.5-1.2-0.5h-0.4c0,0.5,0,0.9,0,1.4s0,1.1,0,1.6c0.1,0,0.3,0,0.4,0c0.4,0,0.8-0.1,1.1-0.5
			C66.9,12.8,67,12.5,67.1,12.1L67.1,12.1z"/>
		<path class="st9" d="M72.6,14.3h-1c-0.1-0.5-0.4-1-0.6-1.5c-0.2-0.2-0.4-0.3-0.7-0.3h-0.4c0,0.6,0,1.2,0,1.8H69c0-0.7,0-1.5,0-2.4
			c0-0.9,0-1.6,0-2.2h1.7c1.1,0,1.6,0.4,1.6,1.1c0,0.6-0.4,1.1-0.9,1.2v0.1c0.3,0.1,0.5,0.3,0.6,0.6C72.2,13.2,72.4,13.8,72.6,14.3z
			 M71.3,11.1c0-0.5-0.3-0.7-0.9-0.7c-0.2,0-0.4,0-0.6,0c0,0.4,0,0.8,0,1.4h0.3C70.9,11.9,71.3,11.7,71.3,11.1L71.3,11.1z"/>
		<path class="st9" d="M77.6,12c0,0.7-0.2,1.3-0.7,1.8c-0.4,0.5-1,0.7-1.6,0.7c-0.6,0-1.1-0.2-1.5-0.6c-0.4-0.4-0.6-1-0.6-1.6
			c0-0.7,0.2-1.3,0.7-1.8c0.4-0.5,1-0.7,1.6-0.7c0.6,0,1.2,0.2,1.6,0.6C77.4,10.8,77.6,11.4,77.6,12z M76.6,12.1
			c0-0.4-0.1-0.8-0.4-1.2c-0.2-0.3-0.6-0.5-0.9-0.4c-0.3,0-0.7,0.2-0.9,0.5c-0.2,0.3-0.4,0.7-0.4,1.1c0,0.4,0.1,0.8,0.4,1.2
			c0.2,0.3,0.6,0.5,0.9,0.4c0.3,0,0.7-0.2,0.9-0.5C76.5,12.9,76.6,12.5,76.6,12.1L76.6,12.1z"/>
		<path class="st9" d="M79.6,14.3h-1c0-0.7,0-1.5,0-2.4c0-0.9,0-1.6,0-2.2h1c0,0.6,0,1.3,0,2.2C79.6,12.8,79.6,13.6,79.6,14.3z"/>
		<path class="st9" d="M84.6,11.9c0,0.6-0.2,1.2-0.6,1.7c-0.4,0.5-1.1,0.8-1.8,0.7c-0.3,0-0.8,0-1.4,0c0-0.7,0-1.5,0-2.4
			c0-0.9,0-1.6,0-2.2h1.4c0.6-0.1,1.3,0.1,1.7,0.6C84.4,10.8,84.6,11.4,84.6,11.9z M83.7,12.1c0-0.4-0.1-0.8-0.4-1.1
			c-0.3-0.3-0.7-0.5-1.2-0.5h-0.4c0,0.5,0,0.9,0,1.4s0,1.1,0,1.6c0.1,0,0.3,0,0.4,0c0.4,0,0.8-0.1,1.1-0.5
			C83.5,12.8,83.6,12.5,83.7,12.1z"/>
		<path class="st9" d="M91.3,14.3h-1.1c-0.1-0.4-0.2-0.9-0.3-1.3h-1.6c-0.2,0.4-0.3,0.9-0.3,1.3h-1c0-0.1,0.3-0.8,0.8-2.2
			c0.3-0.7,0.6-1.5,0.8-2.3h1.3c0.2,0.8,0.4,1.5,0.7,2.3C90.9,12.8,91.1,13.6,91.3,14.3z M89.7,12.3c-0.2-0.6-0.4-1.3-0.6-1.9H89
			c0,0.1-0.2,0.7-0.6,1.9H89.7z"/>
		<path class="st9" d="M95.3,11c0,0.5-0.2,1-0.6,1.2c-0.5,0.3-1,0.4-1.5,0.4H93c0,0.4,0,1,0,1.7h-1c0-0.7,0-1.5,0-2.4
			c0-0.9,0-1.6,0-2.2h1.7c0.4,0,0.8,0.1,1.1,0.3C95.2,10.3,95.4,10.6,95.3,11z M94.4,11.2c0-0.5-0.3-0.7-1-0.7c-0.2,0-0.3,0-0.5,0.1
			c0,0.4,0,0.9,0,1.5h0.2C94,12,94.4,11.7,94.4,11.2z"/>
		<path class="st9" d="M99.5,11c0,0.5-0.2,1-0.6,1.2c-0.5,0.3-1,0.4-1.5,0.4h-0.2c0,0.4,0,1,0,1.7h-1c0-0.7,0-1.5,0-2.4
			c0-0.9,0-1.6,0-2.2h1.7c0.4,0,0.8,0.1,1.1,0.3C99.3,10.3,99.5,10.6,99.5,11z M98.6,11.2c0-0.5-0.3-0.7-1-0.7c-0.2,0-0.3,0-0.5,0.1
			c0,0.4,0,0.9,0,1.5h0.2C98.2,12,98.6,11.7,98.6,11.2z"/>
		<path class="st9" d="M106.3,12c0,0.7-0.2,1.3-0.7,1.8c-0.4,0.5-1,0.7-1.6,0.7c-0.6,0-1.1-0.2-1.5-0.6c-0.4-0.4-0.6-1-0.6-1.6
			c0-0.7,0.2-1.3,0.7-1.8c0.4-0.5,1-0.7,1.6-0.7c0.6,0,1.1,0.2,1.5,0.6C106.1,10.8,106.4,11.4,106.3,12z M105.3,12.1
			c0-0.4-0.1-0.8-0.3-1.2c-0.2-0.3-0.6-0.5-0.9-0.4c-0.3,0-0.7,0.2-0.9,0.5c-0.2,0.3-0.4,0.7-0.3,1.1c0,0.4,0.1,0.8,0.4,1.2
			c0.2,0.3,0.6,0.5,0.9,0.4c0.3,0,0.7-0.2,0.9-0.5C105.3,12.9,105.4,12.5,105.3,12.1L105.3,12.1z"/>
		<path class="st9" d="M111.1,14.3h-0.9c-0.3-0.5-0.6-1-1-1.5c-0.5-0.6-0.9-1.3-1.1-2H108c0.1,0.5,0.1,0.9,0.1,1.4
			c0,0.6,0,1.3,0,2.1h-0.9c0-0.7,0.1-1.5,0.1-2.4c0-0.9,0-1.6-0.1-2.2h1c0.2,0.5,0.5,1,0.9,1.5c0.4,0.6,0.8,1.2,1.1,1.9h0.1
			c-0.1-0.5-0.1-0.9-0.1-1.4c0-0.6,0-1.3,0-1.9h0.9c0,0.6,0,1.3,0,2.2S111,13.6,111.1,14.3z"/>
	</g>
</g>
</svg>
