<svg xmlns="http://www.w3.org/2000/svg" viewBox="0 0 42.45 42.45"><defs><style>.cls-1{fill:#78cbef;}.cls-2{fill:#fff;}</style></defs><title>icon-twitter</title><g id="Layer_2" data-name="Layer 2"><g id="_1170px_grid" data-name="1170px grid"><path class="cls-1" d="M21.23,42.45A21.23,21.23,0,1,0,0,21.23,21.23,21.23,0,0,0,21.23,42.45"/><path class="cls-2" d="M31.86,15.67a8.72,8.72,0,0,1-2.51.69,4.37,4.37,0,0,0,1.92-2.41A8.71,8.71,0,0,1,28.5,15a4.37,4.37,0,0,0-7.43,4,12.38,12.38,0,0,1-9-4.56,4.37,4.37,0,0,0,1.35,5.83,4.36,4.36,0,0,1-2-.54v.05A4.36,4.36,0,0,0,14.95,24a4.26,4.26,0,0,1-1.15.15,4.32,4.32,0,0,1-.82-.08,4.36,4.36,0,0,0,4.07,3,8.82,8.82,0,0,1-6.46,1.81,12.41,12.41,0,0,0,19.1-10.45c0-.19,0-.38,0-.56a8.84,8.84,0,0,0,2.18-2.26"/></g></g></svg>