<svg xmlns="http://www.w3.org/2000/svg" viewBox="0 0 42.45 42.45"><defs><style>.cls-1{fill:#547bbc;}.cls-2{fill:#fff;}</style></defs><title>icon-facebook</title><g id="Layer_2" data-name="Layer 2"><g id="_1170px_grid" data-name="1170px grid"><path class="cls-1" d="M21.23,42.45A21.23,21.23,0,1,0,0,21.23,21.23,21.23,0,0,0,21.23,42.45"/><path class="cls-2" d="M16.11,17.63H18.3V15.5A5.7,5.7,0,0,1,19,12.21a3.9,3.9,0,0,1,3.41-1.6,13.79,13.79,0,0,1,3.93.39l-.55,3.25A7.41,7.41,0,0,0,24,14c-.85,0-1.62.31-1.62,1.16v2.48h3.5l-.24,3.18H22.41v11H18.3v-11H16.11Z"/></g></g></svg>