<?xml version="1.0" encoding="utf-8"?>
<!-- Generator: Adobe Illustrator 20.1.0, SVG Export Plug-In . SVG Version: 6.00 Build 0)  -->
<svg version="1.1" id="Layer_1" xmlns="http://www.w3.org/2000/svg" xmlns:xlink="http://www.w3.org/1999/xlink" x="0px" y="0px"
	 viewBox="0 0 1453 212" style="enable-background:new 0 0 1453 212;" xml:space="preserve">
<style type="text/css">
	.st0{fill:#FFFFFF;}
	.st1{fill:#2ECC71;}
	.st2{fill:#FFEB00;enable-background:new    ;}
</style>
<title>Fichier 1</title>
<path class="st0" d="M552,106c0,58.5-47.5,106-106,106H106C47.5,212,0,164.5,0,106S47.5,0,106,0h340C504.5,0,552,47.5,552,106z"/>
<path class="st1" d="M376.3,68.5c7.6,2.8,13.3,9.1,15.3,16.9c0.3,1.3-0.4,2.6-1.7,2.9c-1.3,0.3-2.6-0.4-2.9-1.7
	c-1.6-6.3-6.3-11.4-12.4-13.7c-1.2-0.5-1.8-1.9-1.3-3.1C373.7,68.6,375.1,68,376.3,68.5L376.3,68.5z"/>
<path class="st1" d="M271.4,146c-9.6-2.6-16.3-9.3-18.6-17.9c-0.3-1.2,0.4-2.5,1.6-2.9c0,0,0.1,0,0.1,0c1.3-0.3,2.6,0.4,2.9,1.7
	c0,0,0,0,0,0c1.8,7,7.2,12.4,15.2,14.6c8.4,2.2,16.3-0.1,21.3-5.8c0.9-1,2.4-1.1,3.4-0.2c1,0.9,1.1,2.4,0.2,3.3c0,0,0,0,0,0
	C291.3,145.8,281.6,148.7,271.4,146z"/>
<path class="st1" d="M552,106c0,58.5-47.5,106-106,106H262.6c5.1-24.4,9.1-43.4,9.1-43.4c1.1-5.5,6.5-11.2,11.9-12.7
	c0,0,21.6-5.9,25.9-21.9c4.8-18,11-69-14.8-75.9s-45.9,40.4-50.7,58.3c-4.3,16.1,11.4,32,11.4,32c4,4,5.7,11.6,4,16.9L244.1,212H106
	C47.5,212,0,164.5,0,106S47.5,0,106,0h274.6l-9,43.2c-1.1,5.5-6.5,11.2-11.9,12.6c0,0-21.6,5.9-25.9,22c-4.8,18-11,69,14.8,75.9
	s45.9-40.4,50.7-58.3c4.3-16.1-11.5-32-11.5-32c-4-4-5.7-11.6-4-16.9c0,0,6.9-20.8,15.3-46.5h47C504.6,0.1,552,47.5,552,106z"/>
<path id="R_D" class="st0" d="M165.9,149.7c0,1.4,1.1,2.5,2.5,2.5h12.1c1.4,0,2.5-1.1,2.5-2.5v-33.6h14.6l17.5,34.9
	c0.4,0.8,1.2,1.2,2.1,1.2H231c1.4,0.1,2.5-1,2.6-2.3c0-0.5-0.1-1-0.4-1.5l-18-33.4c11.4-4.6,19.5-14.5,19.5-26.6
	C234.6,72.6,221.8,60,206,60.1h-37.6c-1.4,0-2.5,1.1-2.5,2.5V149.7L165.9,149.7z M183.2,102V75.8h21.4c7.1,0,12.8,5.7,13,12.8
	c0,7.3-5.7,13.2-13,13.4L183.2,102z M413.9,150.8c0,1.3,1,2.4,2.4,2.5h31.2c25.4,0,46.1-20.6,46.1-46.1s-20.6-46.1-46.1-46.1h-31.2
	c-1.3,0.1-2.4,1.2-2.4,2.5V150.8z M430.9,137.3V77.2h15c17.1,0,29.6,12.1,29.6,30s-12.5,30.1-29.6,30.1L430.9,137.3z"/>
<path id="G" class="st0" d="M58.7,106.9c-0.1,25.9,20.8,47,46.7,47.1c0.2,0,0.3,0,0.5,0c11.4,0,22.7-2.9,32.6-8.6
	c0.7-0.5,1.1-1.3,1.1-2.1v-33.7c0-1.3-1-2.4-2.4-2.5H112c-1.3,0-2.5,1-2.5,2.3c0,0.1,0,0.1,0,0.2v10.4c0,1.3,1.1,2.4,2.4,2.4
	c0,0,0.1,0,0.1,0h10.5v11.2c-5,2.1-10.3,3.2-15.7,3.3c-16.6,0-29.6-13.8-29.6-30.1s13-30.5,29.5-30.5c7.3,0,14.4,2.7,19.9,7.6
	c0.8,0.9,2.2,1.1,3.2,0.3c0.1-0.1,0.2-0.2,0.3-0.3l8.1-8.6c1-1,1-2.6-0.1-3.6c0,0-0.1,0-0.1-0.1c-8.9-7.8-20.3-12.1-32.1-12.2
	c-26.1,0-47.2,21.2-47.2,47.3C58.7,106.8,58.7,106.9,58.7,106.9L58.7,106.9z"/>
<path d="M1302,74.5H818.9c-4.8,0-8.7,3.9-8.8,8.8v71.6c0,4.8,3.9,8.7,8.8,8.8H1302c4.8,0,8.7-3.9,8.8-8.8V83.3
	C1310.7,78.5,1306.8,74.5,1302,74.5z"/>
<path class="st0" d="M1107.1,101.1c-1.4,0-2.5,1.1-2.5,2.5v8.3c0,10.6-4.1,17.9-11.5,20.5c-1.8,0.6-3.8,0.9-5.7,0.9
	c-7.1-0.2-13.8-3.6-18.2-9.3c-0.8-1.1-2.4-1.3-3.5-0.4c-0.5,0.4-0.8,1-0.9,1.6c-0.1,0.7,0.1,1.3,0.5,1.8c3.5,4.5,8.3,7.9,13.7,9.8
	c5.1,1.8,10.6,1.9,15.7,0.2c9.4-3.2,14.8-12.4,14.8-25.2v-8.3C1109.6,102.3,1108.5,101.1,1107.1,101.1z"/>
<path class="st0" d="M901,101.1h-14.2c-1.4,0-2.5,1.1-2.5,2.5v31.6c0,1.4,1.1,2.5,2.5,2.5s2.5-1.1,2.5-2.5l0,0v-6.1h10.8
	c9.4,0,17.4-4.8,17.4-14.1v-0.1C917.5,106.3,911,101.1,901,101.1z M912.6,115.2c0,5.7-4.8,9.5-12.1,9.5h-11v-19h11.2
	c7.1,0,11.9,3.2,11.9,9.4L912.6,115.2z"/>
<path class="st0" d="M936.9,105.1c-3.7,0-7.3,0.7-10.7,2.2c-0.8,0.4-1.3,1.1-1.3,2c0.1,1.1,1,2,2.2,2c0.3,0,0.6-0.1,0.9-0.2
	c2.7-1.2,5.6-1.8,8.5-1.8c6.1,0,9.7,3,9.7,8.7v1.1c-3.3-0.9-6.6-1.4-10-1.4c-8.3,0-14,3.6-14,10.3v0.1c0,6.5,6.1,9.9,12.2,9.9
	c4.6,0.2,9-1.9,11.8-5.5v2.9c0,1.2,1,2.2,2.2,2.2c0,0,0.1,0,0.1,0c1.3,0,2.3-1,2.3-2.3c0,0,0-0.1,0-0.1v-17.5c0-4.1-1.1-7.2-3.4-9.3
	C945.3,106.4,941.5,105.1,936.9,105.1z M946.2,125.7c0,5-4.9,8.6-10.9,8.6c-4.4,0-8.2-2.4-8.2-6.4v-0.1c0-4,3.4-6.6,9.5-6.6
	c3.3,0,6.5,0.4,9.6,1.3L946.2,125.7z"/>
<path class="st0" d="M989.2,105.2c-1.3,0-2.4,1-2.4,2.4c0,0,0,0,0,0.1v3.6c-2.9-4.1-7.7-6.5-12.8-6.5c-7.7,0-15.4,5.7-15.4,15v0.1
	c0,9.2,7.5,14.9,15.4,14.9c6,0,10-3,12.8-6.7v3.8c0,7.5-4.7,11.4-11.9,11.4c-4.1,0-8.2-1.2-11.6-3.4c-0.3-0.2-0.7-0.3-1.1-0.3
	c-1.2,0-2.1,0.9-2.2,2.1c0,0.8,0.5,1.6,1.3,1.9c4.1,2.5,8.8,3.8,13.7,3.8c5.2,0,9.6-1.4,12.4-4.3c2.7-2.6,4.2-6.4,4.2-11.3v-24.2
	C991.6,106.3,990.5,105.2,989.2,105.2z M987,119.9c0,6.5-5.8,10.8-12,10.8c-6,0.2-11.1-4.5-11.3-10.6c0-0.1,0-0.2,0-0.3v-0.1
	c0-6.6,5.2-10.8,11.3-10.8C981.1,109,987,113.3,987,119.9L987,119.9z"/>
<path class="st0" d="M1239.9,104.9c-9,0-15.7,7.4-15.7,16.6v0.1c-0.3,8.8,6.7,16.2,15.5,16.5c0.3,0,0.5,0,0.8,0
	c4.6,0.2,9-1.6,12.3-4.8c0.5-0.4,0.8-0.9,0.8-1.5c0-1.1-1-2.1-2.1-2c-0.5,0-1,0.2-1.4,0.6c-2.5,2.4-5.9,3.7-9.4,3.7
	c-5.8,0-10.8-3.9-11.5-10.8h23.6c1.2,0,2.2-1,2.3-2.2c0,0,0,0,0,0C1255.1,112.7,1249.5,104.9,1239.9,104.9z M1229.1,119.8
	c0.6-6.2,4.9-10.9,10.6-10.9c6.5,0,9.9,5.1,10.4,10.9H1229.1z"/>
<path class="st0" d="M1205.1,104.9c-4.6-0.2-8.9,2.2-11.2,6.2v-3.5c0-1.3-1.1-2.4-2.4-2.4c-1.3,0-2.4,1.1-2.4,2.4v27.7
	c0,1.3,1.1,2.4,2.4,2.4c0,0,0,0,0.1,0c1.3,0,2.4-1,2.4-2.3c0,0,0-0.1,0-0.1v-16.2c-0.3-5.2,3.7-9.7,9-10c0.3,0,0.6,0,0.8,0
	c5.8,0,9,3.7,9,9.6v16.5c0,1.3,1.1,2.4,2.4,2.4s2.4-1.1,2.4-2.4l0,0v-17.7C1217.6,110.1,1213,104.9,1205.1,104.9z"/>
<path class="st0" d="M1275,119.3c-4.4-1.3-8.4-2.5-8.4-5.5v-0.1c0-2.6,2.5-4.6,6.3-4.6c3,0.1,5.9,0.9,8.5,2.5
	c0.3,0.2,0.7,0.3,1.1,0.3c1.2,0,2.1-0.9,2.2-2.1c0-0.8-0.5-1.6-1.2-2c-3.2-1.7-6.8-2.6-10.4-2.7c-6.5,0-11.1,3.6-11.1,9.1v0.1
	c0,5.9,5.7,7.6,10.8,9c4.3,1.2,8.2,2.4,8.2,5.6v0.1c0,3.1-2.8,5.1-6.8,5.1c-3.7-0.1-7.3-1.3-10.3-3.4c-0.3-0.2-0.8-0.4-1.2-0.4
	c-1.2,0-2.1,0.9-2.1,2.1c0,0.7,0.3,1.3,0.9,1.7c3.7,2.5,8.1,3.9,12.6,4c6.5,0,11.6-3.5,11.6-9.6v-0.1
	C1285.4,122.7,1280,120.8,1275,119.3z"/>
<path class="st0" d="M1049.4,119.2c-4.4-1.3-8.4-2.5-8.4-5.5v-0.1c0-2.6,2.5-4.6,6.3-4.6c3,0.1,5.9,0.9,8.5,2.5
	c0.3,0.2,0.7,0.3,1.1,0.3c1.2,0,2.1-0.9,2.1-2c0,0,0,0,0,0c0-0.8-0.5-1.6-1.2-2c-3.2-1.7-6.8-2.6-10.4-2.7c-6.5,0-11.1,3.6-11.1,9.1
	v0.1c0,5.9,5.7,7.6,10.8,9c4.3,1.2,8.1,2.4,8.1,5.6v0.1c0,3.1-2.8,5.1-6.8,5.1c-3.7-0.1-7.3-1.3-10.3-3.4c-0.3-0.3-0.8-0.4-1.2-0.4
	c-1.2,0-2.1,0.9-2.2,2.1c0,0.7,0.3,1.3,0.9,1.7c3.7,2.5,8.1,3.9,12.6,4c6.5,0,11.6-3.5,11.6-9.6v-0.1
	C1059.9,122.6,1054.4,120.7,1049.4,119.2z"/>
<path class="st0" d="M1014.9,104.8c-9,0-15.7,7.4-15.7,16.6v0.1c-0.3,8.9,6.6,16.3,15.5,16.6c0.3,0,0.5,0,0.8,0
	c4.6,0.2,9-1.6,12.3-4.8c0.5-0.4,0.8-0.9,0.8-1.5c0-1.2-1-2.1-2.1-2c0,0,0,0,0,0c-0.5,0-1,0.2-1.4,0.6c-2.5,2.4-5.9,3.7-9.4,3.7
	c-5.8,0-10.8-3.9-11.5-10.8h23.6c1.2,0,2.3-1,2.3-2.2c0,0,0,0,0,0C1030.1,112.5,1024.6,104.8,1014.9,104.8z M1004.2,119.7
	c0.6-6.2,4.9-10.9,10.6-10.9c6.5,0,9.9,5.1,10.4,10.9H1004.2z"/>
<path class="st0" d="M1129.5,105.2c-3.7,0-7.3,0.7-10.7,2.2c-0.8,0.4-1.3,1.1-1.3,2c0.1,1.1,1,2,2.1,2c0.3,0,0.6-0.1,0.9-0.2
	c2.7-1.2,5.5-1.8,8.5-1.8c6.1,0,9.7,3,9.7,8.7v1.1c-3.3-0.9-6.6-1.4-10-1.4c-8.3,0-14,3.6-14,10.3v0.1c0,6.5,6.1,9.9,12.2,9.9
	c4.6,0.2,9-1.9,11.8-5.5v2.9c0,1.2,1,2.2,2.2,2.2c0,0,0.1,0,0.1,0c1.3,0,2.3-1,2.3-2.2c0,0,0-0.1,0-0.1V118c0-4.1-1.1-7.2-3.4-9.3
	S1134,105.2,1129.5,105.2z M1138.8,125.9c0,5-4.9,8.6-10.9,8.6c-4.4,0-8.2-2.4-8.2-6.4v-0.2c0-4,3.4-6.6,9.5-6.6
	c3.2,0,6.5,0.4,9.6,1.3L1138.8,125.9z"/>
<path class="st0" d="M1177.5,105.3c-1.3,0-2.4,1-2.4,2.3c0,0,0,0.1,0,0.1v16.2c0.3,5.2-3.8,9.7-9,10c-0.3,0-0.5,0-0.8,0
	c-5.8,0-9-3.7-9-9.6v-16.5c0-1.3-1.1-2.4-2.5-2.4c-1.3,0-2.4,1-2.4,2.3c0,0,0,0.1,0,0.1v17.7c0,7.6,4.6,12.8,12.5,12.8
	c4.6,0.1,8.9-2.3,11.2-6.2v3.5c-0.1,1.3,0.9,2.5,2.2,2.6c1.3,0.1,2.5-0.9,2.6-2.2c0-0.1,0-0.2,0-0.4v-27.7
	C1179.9,106.4,1178.9,105.3,1177.5,105.3C1177.5,105.3,1177.5,105.3,1177.5,105.3z"/>
<path d="M622.4,94.1h4.5v13.4c1.1-1.6,2.6-2.9,4.5-3.7c1.5-0.7,3.2-1,4.9-1.1c8-0.3,14.7,5.9,15,13.9s-5.9,14.7-13.9,15
	c-0.4,0-0.7,0-1.1,0c-1.7,0-3.4-0.4-4.9-1.1c-1.8-0.8-3.3-2-4.4-3.7v4h-4.5V94.1z M636.3,127.9c2.7,0.1,5.4-1,7.2-3.1
	c3.5-4.4,3.5-10.7,0-15.1c-3.7-3.9-9.9-4.1-13.9-0.4c-0.1,0.1-0.3,0.3-0.4,0.4c-3.5,4.4-3.5,10.7,0,15.1
	C631,126.8,633.6,128,636.3,127.9L636.3,127.9z M679.4,103.5h4.5v25.1c0.2,3.6-1.1,7.1-3.4,9.8c-2.3,2.5-5.8,3.8-10.5,3.8
	c-2,0-4.1-0.3-6-1c-1.5-0.4-3-1-4.3-1.7c-0.6-0.3-1.2-0.7-1.8-1.2l2.1-3.2c1.3,0.9,2.7,1.7,4.3,2.2c1.8,0.7,3.8,1.1,5.8,1.1
	c1.7,0.1,3.4-0.2,5-0.8c1.2-0.5,2.2-1.4,2.9-2.5c0.6-1.1,1-2.3,1.2-3.5c0.2-1.5,0.3-3,0.3-4.6c-1.1,1.6-2.6,2.9-4.5,3.7
	c-1.5,0.7-3.2,1-4.9,1.1c-7.8,0-11.7-4.2-11.7-12.5v-15.7h4.5v14.8c0,1.2,0,2.1,0.1,2.7c0.1,0.8,0.2,1.7,0.4,2.5
	c0.1,0.9,0.5,1.7,1.1,2.3c0.6,0.6,1.3,1.1,2.1,1.4c1.1,0.5,2.3,0.7,3.5,0.7c3.1,0,5.4-1,7-3c1.6-2.2,2.4-4.9,2.3-7.6L679.4,103.5
	L679.4,103.5z"/>
<path class="st2" d="M851.9,138.2h-83.5c-3.5,0-6.4-2.9-6.4-6.4V55.1c0-3.5,2.9-6.4,6.4-6.4h83.5c3.5,0,6.4,2.9,6.4,6.4v76.7
	C858.3,135.3,855.4,138.2,851.9,138.2z"/>
<path d="M810.8,122.2c-3.6,0-7.3-0.6-10.7-1.8c-6.8-2.4-12.8-6.6-17.3-12.3c-1.4-1.7-1-4.2,0.7-5.6c1.7-1.4,4.2-1,5.6,0.7l0,0
	c7,9,19,13.3,28.4,10c8.7-3,13.5-11.6,13.5-24.4V78.5c0-2.2,1.8-4,4-4c2.2,0,4,1.8,4,4v10.2c0,16.2-6.9,27.8-18.9,31.9
	C817,121.7,813.9,122.2,810.8,122.2L810.8,122.2z"/>
<path d="M786,86.9c-2.2,0-4-1.8-4-4c0,0,0,0,0,0v-4.4c0-2.2,1.8-4,4-4c2.2,0,4,1.8,4,4c0,0,0,0,0,0v4.4
	C789.9,85.1,788.2,86.9,786,86.9L786,86.9L786,86.9z"/>
</svg>
