<?xml version="1.0" encoding="utf-8"?>
<!-- Generator: Adobe Illustrator 19.2.1, SVG Export Plug-In . SVG Version: 6.00 Build 0)  -->
<svg version="1.1" id="Layer_1" xmlns="http://www.w3.org/2000/svg" xmlns:xlink="http://www.w3.org/1999/xlink" x="0px" y="0px"
	 viewBox="0 0 32.2 95.9" style="enable-background:new 0 0 32.2 95.9;" xml:space="preserve">
<style type="text/css">
	.st0{fill:#FFFFFF;}
</style>
<g>
	<g>
		<path class="st0" d="M31.8,24.6c0,3.2,0.1,6.3,0,9.5c-0.1,3.8-1.6,7.1-4.2,9.9c-2.2,2.4-4.8,3.9-8,4.7
			c-8.9,2.2-17.9-3.8-19.4-12.9C0.1,34.8,0,33.9,0,32.9c0-5.6,0-11.1,0-16.7c0-4.5,1.5-8.4,4.7-11.6C7.7,1.7,11.2,0.2,15.4,0
			c8.1-0.3,15.1,5.6,16.3,13.6c0.1,0.7,0.2,1.4,0.2,2.2C31.8,18.7,31.8,21.7,31.8,24.6C31.8,24.6,31.8,24.6,31.8,24.6z M27.3,24.6
			c0-2.8,0-5.7,0-8.5c0-0.6,0-1.2-0.1-1.8c-0.9-6.1-6.4-10.4-12.5-9.7C8.9,5.2,4.6,10.1,4.6,15.9c0,5.7,0,11.5,0,17.2
			c0,3.3,1.2,6.2,3.6,8.5c4.5,4.3,12,4,16.1-0.7c2-2.2,3-4.8,3-7.8C27.3,30.2,27.3,27.4,27.3,24.6z"/>
		<path class="st0" d="M13.6,16.2c0-1.1,0-2.1,0-3.2c0-1.3,1-2.3,2.2-2.3c1.3,0,2.3,0.9,2.3,2.2c0,2.2,0,4.4,0,6.5
			c0,1.3-1.1,2.3-2.3,2.2c-1.2,0-2.2-1-2.2-2.3C13.6,18.3,13.6,17.2,13.6,16.2z"/>
	</g>
	<g>
		<path class="st0" d="M16.4,92.7c2.2-1.8,4.4-3.7,6.6-5.5c2.2-1.9,4.5-3.7,6.7-5.6c0.4-0.4,0.9-0.6,1.5-0.4c0.5,0.2,0.9,0.5,1,1
			c0.1,0.6-0.1,1-0.5,1.4c-1,0.8-2,1.7-3,2.5c-3.7,3.1-7.4,6.2-11.1,9.3c-0.8,0.6-1.4,0.7-2.2,0c-4.7-3.9-9.4-7.8-14.1-11.7
			c-0.6-0.5-0.8-1.1-0.6-1.7c0.4-0.9,1.5-1.2,2.2-0.5c0.8,0.6,1.5,1.3,2.3,1.9c3.7,3.1,7.4,6.1,11,9.2
			C16.3,92.6,16.3,92.6,16.4,92.7z"/>
	</g>
</g>
</svg>
